<svg xmlns="http://www.w3.org/2000/svg" width="50" height="50" fill="none" viewBox="0 0 50 50"><path fill="#23D997" d="M49.93 27.83L40.49 4.126a.982.982 0 0 0-1.276-.549L.915 18.828a.962.962 0 0 0-.393.313.97.97 0 0 0-.523.852V45.51c0 .542.44.981.982.981h41.223c.542 0 .982-.439.982-.981V31.573l6.195-2.467a.981.981 0 0 0 .548-1.275zm-8.706 16.7H1.963V20.972h39.26V44.53zM16.377 19.014l16.434-6.549a7.81 7.81 0 0 0 5.627 2.427l1.64 4.122H16.375zm26.81 10.45v-9.473a.982.982 0 0 0-.982-.982h-.016l-2.08-5.224a.812.812 0 0 0-.08-.123.97.97 0 0 0-1.026-.756 5.87 5.87 0 0 1-5.146-2.216.973.973 0 0 0-1.259-.22 1.101 1.101 0 0 0-.138.025l-20.065 7.99a.97.97 0 0 0-.538.524H5.763L39.03 5.765l8.715 21.882-4.557 1.818z"/><path fill="#23D997" d="M4.627 37.903a5.868 5.868 0 0 1 3.962 3.958c.124.416.507.7.94.7a.898.898 0 0 0 .152-.022c.044.012.089.022.134.027h23.556a.858.858 0 0 0 .12-.024.914.914 0 0 0 1.104-.672l.001-.005a5.868 5.868 0 0 1 3.963-3.963.969.969 0 0 0 .673-1.08.995.995 0 0 0 .029-.145v-7.852a.886.886 0 0 0-.03-.145.968.968 0 0 0-.673-1.08 5.862 5.862 0 0 1-3.96-3.963.97.97 0 0 0-1.088-.673.932.932 0 0 0-.139-.028H9.815a.922.922 0 0 0-.146.03.97.97 0 0 0-1.08.673A5.868 5.868 0 0 1 4.627 27.6a.969.969 0 0 0-.673 1.08.991.991 0 0 0-.028.145v7.852a.904.904 0 0 0 .028.137c-.081.48.207.946.673 1.09zm1.262-8.68a7.788 7.788 0 0 0 4.325-4.324h22.758a7.79 7.79 0 0 0 4.325 4.325v7.055a7.797 7.797 0 0 0-4.324 4.324h-22.76A7.797 7.797 0 0 0 5.89 36.28v-7.055z"/><path fill="#23D997" d="M21.593 38.64a5.889 5.889 0 100-11.778 5.889 5.889 0 000 11.778zm0-9.815a3.926 3.926 0 110 7.852 3.926 3.926 0 010-7.852zM10.797 34.224a1.472 1.472 0 100-2.945 1.472 1.472 0 000 2.945zm0-1.963a.49.49 0 110 .981.49.49 0 010-.981zM32.39 34.224a1.472 1.472 0 100-2.945 1.472 1.472 0 000 2.945zm0-1.963a.49.49 0 110 .981.49.49 0 010-.981z"/></svg>