<svg xmlns="http://www.w3.org/2000/svg" width="55" height="50" fill="none" viewBox="0 0 55 50"><path fill="#23D997" d="M44.315 24.431c5.602-4.607 6.061-12.496 1.025-17.62-4.62-4.7-12.351-5.498-18-1.859C21.184.978 12.67 2.322 8.324 7.953c-3.987 5.168-3.118 12.248 2.024 16.478C3.958 27.51-.03 33.584 0 40.19v5.357c0 .986.874 1.786 1.952 1.786H52.71c1.079 0 1.953-.8 1.953-1.786V40.19c.029-6.606-3.959-12.679-10.347-15.759zM35.14 6.261c5.383-.005 9.752 3.982 9.758 8.907.004 3.511-2.246 6.698-5.747 8.14a10.229 10.229 0 0 1-1.938.602c-.098.02-.195.03-.295.048-.566.1-1.141.152-1.718.159a9.58 9.58 0 0 1-.78-.04c-.098 0-.196 0-.294-.017-1.11-.12-2.188-.41-3.191-.861-.037-.016-.08-.015-.118-.029-.195-.085-.39-.16-.564-.257.016-.018.026-.037.041-.055a12.25 12.25 0 0 0 2.09-3.484l.061-.15c.223-.6.396-1.214.518-1.838.017-.09.031-.178.047-.276.113-.635.172-1.277.177-1.92a11.523 11.523 0 0 0-.177-1.916l-.047-.277a11.726 11.726 0 0 0-.518-1.838l-.06-.15a12.252 12.252 0 0 0-2.09-3.483c-.017-.018-.026-.038-.042-.056a10.4 10.4 0 0 1 4.887-1.209zM9.76 15.19c-.014-4.918 4.334-8.916 9.71-8.928 2.521-.006 4.946.882 6.765 2.478a9.404 9.404 0 0 1 1.26 1.33c.085.111.163.229.243.343.273.384.512.787.716 1.205.05.102.086.206.13.308.205.462.367.94.483 1.428.014.054.018.107.03.163a7.704 7.704 0 0 1 0 3.36c-.012.056-.016.11-.03.163a8.17 8.17 0 0 1-.484 1.428c-.043.102-.08.206-.129.307a8.61 8.61 0 0 1-.716 1.204c-.08.114-.158.232-.244.343a9.379 9.379 0 0 1-1.26 1.33 9.844 9.844 0 0 1-2.695 1.664 5.968 5.968 0 0 1-.48.179c-.471.17-.955.308-1.449.41-.123.026-.25.04-.375.06-.53.09-1.067.14-1.606.148h-.215a10.537 10.537 0 0 1-1.607-.148c-.125-.02-.252-.034-.375-.06-.493-.102-.978-.24-1.448-.41-.162-.059-.322-.12-.48-.179-3.493-1.442-5.74-4.62-5.744-8.126zM35.14 43.761H3.905V40.19c-.029-6.051 4.139-11.454 10.381-13.457a14.799 14.799 0 0 0 10.472 0c.652.218 1.287.475 1.901.77.406.19.781.408 1.172.628.253.145.511.286.755.445.377.244.732.51 1.082.784.224.178.447.357.658.535.322.279.624.573.915.875a14.507 14.507 0 0 1 1.331 1.591c.196.268.37.547.541.825.196.307.375.615.539.934.164.32.309.67.449 1.011.123.296.254.591.355.893.137.414.233.843.328 1.271.059.254.135.502.178.76.115.706.175 1.42.177 2.135v3.571zm15.617 0H39.044V40.19c0-.56-.035-1.113-.09-1.66-.015-.162-.043-.32-.062-.481a15.638 15.638 0 0 0-.307-1.672 16.21 16.21 0 0 0-.326-1.182c-.04-.128-.078-.259-.12-.386a17.079 17.079 0 0 0-2.353-4.512l-.076-.102a17.875 17.875 0 0 0-1.076-1.323l-.014-.016a16.8 16.8 0 0 0-1.259-1.28h.08c.551.066 1.106.102 1.662.107h.107a15.053 15.053 0 0 0 1.538-.091c.16-.018.319-.045.479-.068.415-.059.825-.134 1.23-.227.115-.027.232-.052.349-.082a14.144 14.144 0 0 0 1.562-.486c6.247 2.002 10.418 7.407 10.39 13.46v3.572z"/><defs><clipPath id="clip0"><path fill="#fff" d="M0 0h54.662v50H0z"/></clipPath></defs></svg>